<?xml version="1.0" standalone="no"?>
<!DOCTYPE svg PUBLIC "-//W3C//DTD SVG 20010904//EN"
 "http://www.w3.org/TR/2001/REC-SVG-20010904/DTD/svg10.dtd">
<svg version="1.0" xmlns="http://www.w3.org/2000/svg"
 width="260.000000pt" height="260.000000pt" viewBox="0 0 260.000000 260.000000"
 preserveAspectRatio="xMidYMid meet">
<metadata>
Created by potrace 1.11, written by Peter Selinger 2001-2013
</metadata>
<g transform="translate(0.000000,260.000000) scale(0.100000,-0.100000)"
fill="#000000" stroke="none">
<path d="M0 1300 l0 -1300 1300 0 1300 0 0 1300 0 1300 -1300 0 -1300 0 0
-1300z m1860 1122 c43 -31 107 -139 135 -229 27 -82 28 -93 21 -217 -12 -241
-116 -610 -325 -1156 -59 -154 -63 -191 -31 -295 26 -82 80 -144 126 -146 63
-2 111 4 143 17 44 19 80 18 103 -3 22 -20 23 -51 3 -80 -42 -60 -252 -86
-341 -42 -48 23 -97 74 -122 125 -8 19 -20 34 -26 34 -6 0 -27 -30 -46 -67
-43 -81 -90 -133 -120 -133 -30 0 -60 27 -60 54 0 12 32 84 70 161 95 188 98
206 77 353 -32 216 -15 866 27 1113 44 250 154 482 250 525 36 16 81 11 116
-14z m-920 -798 c70 -16 120 -49 120 -79 0 -21 -45 -65 -66 -65 -9 0 -44 8
-78 17 -76 21 -262 24 -326 5 -68 -20 -121 -61 -167 -129 -72 -107 -74 -186
-9 -270 57 -73 95 -97 351 -218 114 -54 151 -76 197 -123 106 -104 150 -271
98 -373 -72 -141 -474 -238 -755 -182 -90 17 -125 39 -125 76 0 28 9 41 38 56
18 9 41 8 114 -5 162 -30 383 -5 524 60 96 44 112 80 77 181 -25 75 -86 129
-211 186 -246 114 -294 142 -362 209 -36 36 -78 89 -94 118 -26 50 -28 60 -24
145 4 100 17 134 86 236 42 62 123 122 204 151 70 25 305 28 408 4z m1480
-1114 c41 -44 60 -92 60 -153 0 -104 -41 -157 -119 -157 -87 0 -140 59 -149
166 -7 79 37 150 103 167 50 12 77 7 105 -23z"/>
<path d="M1760 2270 c-40 -56 -90 -179 -115 -282 -41 -168 -75 -554 -75 -839
0 -160 5 -209 19 -209 17 0 143 363 216 625 108 387 112 534 20 692 -14 24
-30 43 -35 43 -5 0 -18 -13 -30 -30z"/>
</g>
</svg>
